<svg xmlns="http://www.w3.org/2000/svg" xmlns:xlink="http://www.w3.org/1999/xlink" viewBox="0 0 300 300"><defs><style>.cls-1{fill:red;}.cls-2{fill:#063;}.cls-10,.cls-11,.cls-2,.cls-4,.cls-5,.cls-6{stroke:#000;stroke-miterlimit:10;}.cls-3{fill:#ff3;}.cls-4{fill:#f60;}.cls-4,.cls-5{stroke-width:4px;}.cls-5{fill:#6c3;}.cls-6{fill:url(#linear-gradient);}.cls-7{fill:#396f9e;}.cls-8{fill:#ffdb4e;}.cls-9{fill:#2b2928;}.cls-10{stroke-width:5px;}.cls-11{fill:#fff;stroke-width:6px;}</style><linearGradient id="linear-gradient" x1="197.33" y1="65.67" x2="230.92" y2="99.26" gradientUnits="userSpaceOnUse"><stop offset="0" stop-color="#ffdb4e"/><stop offset="0.5" stop-color="#6f0"/><stop offset="1" stop-color="#063"/></linearGradient></defs><g id="Export_Layer" data-name="Export Layer"><path class="cls-1" d="M94.5,76.5c-16.18,13.94-35.12,40.2-40.18,64.2-4.2,20-27.95,8.15-27.95,8.15S20.46,87.73,63.31,48.07"/><path class="cls-2" d="M262.7,81.33c6.53,16.09,10.22,36.9,9.8,64.17-.17,10.93-23,0-23,0A144.52,144.52,0,0,0,230,100.19"/><path class="cls-3" d="M196.28,67A100.7,100.7,0,0,0,156.5,52.5c-19.22-2.78-1.87-34.65-1.87-34.65S191,18,218,35"/><path class="cls-4" d="M94.5,76.5,63.31,48.07c18.11-16.76,44.92-29.68,84.56-32.54,11.45-.83,0,35.47,0,35.47S116.81,61.12,90.13,84.1"/><path class="cls-5" d="M196.28,67,217.5,34.5c18.76,8.84,35.27,22.4,45.2,46.83L230,100.19,196.28,67"/><path class="cls-6" d="M196.5,66.5c14.69,9.26,25.56,21.56,33.49,33.69"/><polygon class="cls-7" points="248.5 156 269.94 156 274 170.99 269.94 184.7 257.99 206.89 242.53 224.44 225 241.99 199.43 257.77 187.46 266.26 174 268.99 162 249.99 173 245.99 181 238.99 191.76 231.89 206.4 219.56 221.59 206.89 236.91 189.58 242.53 170.06 248.5 156"/><polygon class="cls-8" points="29.52 156.01 50.9 156.01 58 168 69 194 80 213 97 228 111 232 118 231 124 225 150 216 162 221 181 232 167 246 174.11 269.01 162 286 134 286 124.82 271.87 100 257 79 246 59 228 43 207 30 184 29.52 156.01"/><g id="Group_809"><path class="cls-9" d="M187.74,266.33c52.68-16.27,95-68,95-127.13A129.48,129.48,0,0,0,262.9,70.87a5.63,5.63,0,1,0-9.56,5.94A118.26,118.26,0,0,1,271.5,139.2c0,1.86-.05,3.74-.15,5.62H248.84c-2.75-47.34-44.76-89.94-93.22-93.17V17.84c23.12,1.13,45.47,9.22,65,23.56a5.63,5.63,0,1,0,6.67-9.06C204.23,15.4,177.52,6.45,150,6.45h-.24C78.65,6.58,17.91,67.75,17.26,138c-.55,58.39,41,111.83,95,128.38a39.38,39.38,0,0,0,75.47,0Zm82.48-110.26c-7.37,48.65-45.54,90.49-93.63,101.62a6,6,0,0,1-7.14-4.25,5.74,5.74,0,0,1,4.14-6.93c40.25-10.17,72.3-48.34,75.19-90.44ZM118.43,256.43C72.59,243.75,36.92,203,29.8,156.07H51.18c2.56,38.93,30.93,75.4,67.37,88.09a5.63,5.63,0,0,0,6.78-2.61,28.14,28.14,0,0,1,45.08-5.83,17,17,0,0,0-11.87,20.45,17.23,17.23,0,0,0,15.85,12.9,28.13,28.13,0,0,1-51.95-8.34,5.63,5.63,0,0,0-4-4.3ZM28.51,138.08C29.08,75.88,82.61,21,144.37,17.85V51.63C95.79,54.7,54.28,96.17,51.19,144.82H28.65c-.11-2.25-.17-4.51-.14-6.74ZM150,62.7c45.38,0,87.9,40.92,87.74,87.73-.19,34.45-23.44,68-55.88,81.5a39.38,39.38,0,0,0-63.74,0C86,218.71,62.25,184.46,62.25,150.45,62.25,104,103,63,149.44,62.7Zm0,0,98.44-9a5.63,5.63,0,1,1-5.63-5.63,5.63,5.63,0,0,1,5.63,5.63Zm0,0"/></g><polygon class="cls-10" points="233.19 77.66 152.76 131.82 165.88 147.46 233.19 77.66"/><circle class="cls-11" cx="150.76" cy="148.42" r="14.64"/></g><g id="Initial_Setup" data-name="Initial Setup"><circle class="cls-9" cx="145" cy="246" r="6"/></g></svg>